<svg width="22" height="16" viewBox="0 0 22 16" fill="none" xmlns="http://www.w3.org/2000/svg">
<path d="M21.3318 4.35355C21.5271 4.15829 21.5271 3.84171 21.3318 3.64645L18.1498 0.464466C17.9546 0.269204 17.638 0.269204 17.4427 0.464466C17.2475 0.659728 17.2475 0.976311 17.4427 1.17157L20.2712 4L17.4427 6.82843C17.2475 7.02369 17.2475 7.34027 17.4427 7.53553C17.638 7.7308 17.9546 7.7308 18.1498 7.53553L21.3318 4.35355ZM0.978271 4.5H20.9783V3.5H0.978271V4.5Z" fill="black"/>
<path d="M0.648126 11.6447C0.451986 11.8391 0.450559 12.1557 0.644937 12.3518L3.81253 15.5481C4.00692 15.7443 4.32349 15.7457 4.51964 15.5513C4.71578 15.357 4.7172 15.0404 4.52282 14.8442L1.70718 12.0031L4.54834 9.18744C4.74448 8.99306 4.7459 8.67648 4.55152 8.48034C4.35714 8.2842 4.04057 8.28277 3.84442 8.47715L0.648126 11.6447ZM21.0021 11.5901L1.00234 11.4999L0.997827 12.4999L20.9976 12.5901L21.0021 11.5901Z" fill="black"/>
</svg>
